<svg xmlns="http://www.w3.org/2000/svg" version="1.1" viewBox="-5.0 -10.0 110.0 135.0">
 <g>
  <path d="m50 3.332c-12.375 0-24.246 4.918-33 13.668-8.75 8.7539-13.668 20.625-13.668 33s4.918 24.246 13.668 33c8.7539 8.75 20.625 13.668 33 13.668s24.246-4.918 33-13.668c8.75-8.7539 13.668-20.625 13.668-33-0.015625-12.371-4.9375-24.234-13.684-32.984-8.75-8.7461-20.613-13.668-32.984-13.684zm0 90c-11.492 0-22.516-4.5625-30.641-12.691-8.1289-8.125-12.691-19.148-12.691-30.641s4.5625-22.516 12.691-30.641c8.125-8.1289 19.148-12.691 30.641-12.691s22.516 4.5625 30.641 12.691c8.1289 8.125 12.691 19.148 12.691 30.641-0.011719 11.488-4.582 22.504-12.703 30.629-8.125 8.1211-19.141 12.691-30.629 12.703z"/>
  <path d="m50 10c-10.609 0-20.781 4.2148-28.285 11.715-7.5 7.5039-11.715 17.676-11.715 28.285s4.2148 20.781 11.715 28.285c7.5039 7.5 17.676 11.715 28.285 11.715s20.781-4.2148 28.285-11.715c7.5-7.5039 11.715-17.676 11.715-28.285-0.011719-10.605-4.2305-20.773-11.73-28.27-7.4961-7.5-17.664-11.719-28.27-11.73zm0 76.668c-9.7227 0-19.051-3.8633-25.926-10.742-6.8789-6.875-10.742-16.203-10.742-25.926s3.8633-19.051 10.742-25.926c6.875-6.8789 16.203-10.742 25.926-10.742s19.051 3.8633 25.926 10.742c6.8789 6.875 10.742 16.203 10.742 25.926-0.011719 9.7227-3.8789 19.043-10.754 25.914-6.8711 6.875-16.191 10.742-25.914 10.754z"/>
  <path d="m50 16.668c-8.8398 0-17.32 3.5117-23.57 9.7617s-9.7617 14.73-9.7617 23.57 3.5117 17.32 9.7617 23.57 14.73 9.7617 23.57 9.7617 17.32-3.5117 23.57-9.7617 9.7617-14.73 9.7617-23.57c-0.007812-8.8359-3.5234-17.309-9.7734-23.559s-14.723-9.7656-23.559-9.7734zm8.25 22.727 2.3555-2.3555v-0.003906c0.65625-0.62891 1.6953-0.62109 2.3359 0.023438 0.64453 0.64062 0.65234 1.6797 0.023438 2.3359l-2.3594 2.3555c-0.30859 0.32031-0.73438 0.50391-1.1836 0.50781-0.44531 0.003907-0.875-0.17187-1.1914-0.48828-0.31641-0.31641-0.49219-0.74609-0.48828-1.1914 0.003906-0.44922 0.1875-0.875 0.50781-1.1836zm-9.918-6.0625c0-0.91797 0.74609-1.6641 1.668-1.6641s1.668 0.74609 1.668 1.6641v3.3359c0 0.91797-0.74609 1.6641-1.668 1.6641s-1.668-0.74609-1.668-1.6641zm-11.297 3.7031c0.65234-0.64844 1.707-0.64844 2.3594 0l2.3555 2.3555v0.003906c0.32031 0.30859 0.50391 0.73438 0.50781 1.1836 0.003907 0.44531-0.17187 0.875-0.48828 1.1914-0.31641 0.31641-0.74609 0.49219-1.1914 0.48828-0.44922-0.003906-0.875-0.1875-1.1836-0.50781l-2.3555-2.3555h-0.003906c-0.64844-0.65234-0.64844-1.707 0-2.3594zm-5.3672 12.965c0-0.92188 0.74609-1.668 1.6641-1.668h3.3359c0.91797 0 1.6641 0.74609 1.6641 1.668s-0.74609 1.668-1.6641 1.668h-3.3359c-0.91797 0-1.6641-0.74609-1.6641-1.668zm10.082 10.605-2.3555 2.3555v0.003906c-0.65625 0.62891-1.6953 0.62109-2.3359-0.023438-0.64453-0.64062-0.65234-1.6797-0.023438-2.3359l2.3555-2.3555h0.003906c0.30859-0.32031 0.73438-0.50391 1.1836-0.50781 0.44531-0.003907 0.875 0.17187 1.1914 0.48828 0.31641 0.31641 0.49219 0.74609 0.48828 1.1914-0.003906 0.44922-0.1875 0.875-0.50781 1.1836zm9.918 6.0625c0 0.91797-0.74609 1.6641-1.668 1.6641s-1.668-0.74609-1.668-1.6641v-3.3359c0-0.91797 0.74609-1.6641 1.668-1.6641s1.668 0.74609 1.668 1.6641zm-1.668-8.332v-0.003907c-3.3711 0-6.4102-2.0273-7.6992-5.1445-1.2891-3.1133-0.57812-6.6953 1.8086-9.0781 2.3828-2.3867 5.9648-3.0977 9.0781-1.8086 3.1172 1.2891 5.1445 4.3281 5.1445 7.6992-0.003906 4.6016-3.7305 8.3281-8.332 8.332zm12.965 4.6289c-0.65234 0.64844-1.707 0.64844-2.3594 0l-2.3555-2.3594c-0.32031-0.30859-0.50391-0.73438-0.50781-1.1836-0.003907-0.44531 0.17187-0.875 0.48828-1.1914 0.31641-0.31641 0.74609-0.49219 1.1914-0.48828 0.44922 0.003906 0.875 0.1875 1.1836 0.50781l2.3555 2.3555h0.003906c0.64844 0.65234 0.64844 1.707 0 2.3594zm3.7031-11.297h-3.3359c-0.91797 0-1.6641-0.74609-1.6641-1.668s0.74609-1.668 1.6641-1.668h3.3359c0.91797 0 1.6641 0.74609 1.6641 1.668s-0.74609 1.668-1.6641 1.668z"/>
  <path d="m55 50c0 6.668-10 6.668-10 0s10-6.668 10 0"/>
 </g>
<text x="0.0" y="117.5" font-size="5.0" font-weight="bold" font-family="Arbeit Regular, Helvetica, Arial-Unicode, Arial, Sans-serif" fill="#000000">Created by Juicy Fish</text><text x="0.0" y="122.5" font-size="5.0" font-weight="bold" font-family="Arbeit Regular, Helvetica, Arial-Unicode, Arial, Sans-serif" fill="#000000">from Noun Project</text></svg>