<svg xmlns="http://www.w3.org/2000/svg" data-name="14 Food" viewBox="0 -80 512 640" x="0px" y="0px"><defs><style>
      .cls-1 {
        stroke-width: 0px;
      }
    </style></defs><path class="cls-1" d="M496,272h-24.58c-3.76-51.67-25.68-99.73-62.68-136.73-37-37-85.07-58.93-136.74-62.68v-8.58c0-8.84-7.16-16-16-16s-16,7.16-16,16v8.58c-51.67,3.76-99.73,25.68-136.74,62.68-37,37-58.93,85.07-62.68,136.73h-24.58c-8.84,0-16,7.16-16,16s7.16,16,16,16h131.49l-62.61,60.49c-3.09,2.98-4.84,7.08-4.88,11.37-.04,4.29,1.65,8.42,4.69,11.45l72,72c3.12,3.12,7.22,4.69,11.31,4.69s8.19-1.56,11.31-4.69l27.31-27.31h89.37c11.88,0,23.28-4.38,32.04-12.26l72.07-64.07c14.84-13.35,19.39-33.93,13.14-51.68h82.75c8.84,0,16-7.16,16-16s-7.16-16-16-16ZM383.98,320.84c-.22,4.27-2.1,8.19-5.2,10.99l-72.07,64.07c-2.94,2.65-6.75,4.11-10.7,4.11h-96c-4.24,0-8.31,1.69-11.31,4.69l-20.69,20.69-49.18-49.18,69.67-67.32c.07-.06.13-.13.2-.19,3.02-3.02,7.04-4.69,11.31-4.69h64c8.82,0,16,7.18,16,16s-7.18,16-16,16h-40c-8.84,0-16,7.16-16,16s7.16,16,16,16h59.72c3.91,0,7.69-1.43,10.62-4.03l62.87-55.79s.06-.05.08-.08c3.18-2.86,7.28-4.32,11.54-4.08,4.27.22,8.19,2.1,11.05,5.27,0,0,0,0,0,0,2.86,3.18,4.31,7.28,4.08,11.54ZM72.7,272c8.14-93.99,87.23-168,183.3-168s175.16,74.01,183.3,168H72.7Z"/><text x="0" y="527" fill="#000000" font-size="5px" font-weight="bold" font-family="'Helvetica Neue', Helvetica, Arial-Unicode, Arial, Sans-serif">Created by Izwar Muis</text><text x="0" y="532" fill="#000000" font-size="5px" font-weight="bold" font-family="'Helvetica Neue', Helvetica, Arial-Unicode, Arial, Sans-serif">from the Noun Project</text></svg>