<svg xmlns="http://www.w3.org/2000/svg" data-name="Layer 1" viewBox="0 -12 90 112.5" x="0px" y="0px"><path d="M45,1.079A43.921,43.921,0,1,0,88.922,45,43.972,43.972,0,0,0,45,1.079Zm0,82.352A38.431,38.431,0,1,1,83.431,45,38.474,38.474,0,0,1,45,83.431ZM62.664,31.218,48.882,45,62.664,58.782a2.745,2.745,0,1,1-3.882,3.882L45,48.882,31.218,62.664a2.745,2.745,0,0,1-3.882-3.882L41.118,45,27.336,31.218a2.745,2.745,0,0,1,3.882-3.882L45,41.118,58.782,27.336a2.745,2.745,0,0,1,3.882,3.882Z"/><text x="0" y="105" fill="#000000" font-size="5px" font-weight="bold" font-family="'Helvetica Neue', Helvetica, Arial-Unicode, Arial, Sans-serif">Created by Andi wiyanto</text><text x="0" y="110" fill="#000000" font-size="5px" font-weight="bold" font-family="'Helvetica Neue', Helvetica, Arial-Unicode, Arial, Sans-serif">from the Noun Project</text></svg>