<svg xmlns="http://www.w3.org/2000/svg" data-name="Layer 1" viewBox="0 -15 95 118.75" x="0px" y="0px"><defs><style>.cls-1{fill-rule:evenodd;}</style></defs><title>a</title><path class="cls-1" d="M73.15,36.692a3.952,3.952,0,0,1-3.07,2.213l-6.416.937a8.183,8.183,0,0,0-5.931,3.95l-3.149,5.245-3.955-4.094L53.8,41.036a8.182,8.182,0,0,0,1.684-6.924l-1.314-6.351A3.949,3.949,0,0,1,55.2,24.12l14.3-15.2-8.98,12.824a3.808,3.808,0,0,0,.934,5.3l6.819,4.774a3.808,3.808,0,0,0,5.3-.933l8.979-12.823L73.15,36.692ZM75.1,78.217a3.908,3.908,0,0,0-1.147-3.064L39.517,39.517a8.124,8.124,0,0,1-2.325-5.189,2.1,2.1,0,0,1,.251-1.137c3.229-5.951-1.244-12.584-6.507-16.808a28.015,28.015,0,0,0-10.37-5.337c-3.283-.8-5.918-.526-7.421.779-1.574,1.367-2.293,4.027-2.025,7.486a28.022,28.022,0,0,0,3.625,11.206,21.852,21.852,0,0,0,6.941,7.717,9.453,9.453,0,0,0,8.272,1.225,2.076,2.076,0,0,1,.662-.107,2.1,2.1,0,0,1,.491.058,8.118,8.118,0,0,1,4.724,3.2L64.95,82.71a4.1,4.1,0,0,0,5.955.733l2.739-2.3a3.908,3.908,0,0,0,1.46-2.929Zm-42.88,8.065a4.1,4.1,0,0,1-5.868,1.25L23.427,85.48a4.1,4.1,0,0,1-.834-5.941L40.971,56.861l4.88,6.722-13.627,22.7ZM86.475,12.176l-.123-.086a3.919,3.919,0,0,0-5.454.962L70.346,28.121l-1.34-.94L80.593,10.633a2.109,2.109,0,1,0-3.456-2.419L65.55,24.762l-1.341-.939L74.76,8.754A3.92,3.92,0,0,0,73.8,3.3l-.123-.086a3.889,3.889,0,0,0-5.1.523L52.122,21.23a8.115,8.115,0,0,0-2.087,7.387l1.314,6.349a3.932,3.932,0,0,1-.83,3.414l-2.843,3.509-5.126-5.3a3.982,3.982,0,0,1-1.082-2.006c3.243-6.771.267-14.939-7.891-21.487A31.917,31.917,0,0,0,21.569,6.948c-4.651-1.139-8.625-.536-11.191,1.693-2.607,2.266-3.838,6.17-3.465,11A31.927,31.927,0,0,0,11.078,32.6C15.289,40,21.187,44.136,27.156,44.136a13.033,13.033,0,0,0,3.464-.47,3.957,3.957,0,0,1,1.8,1.418l5.984,8.242L19.315,76.883a8.32,8.32,0,0,0,1.692,12.053l2.929,2.051A8.128,8.128,0,0,0,28.643,92.5a8.59,8.59,0,0,0,1.8-.194,8.128,8.128,0,0,0,5.4-3.854l12.7-21.161L61.536,85.189a8.134,8.134,0,0,0,5.718,3.371,8.947,8.947,0,0,0,1.077.067,8.1,8.1,0,0,0,5.286-1.951l2.739-2.3a8.319,8.319,0,0,0,.635-12.155L57.619,52.177l3.731-6.214a3.925,3.925,0,0,1,2.923-1.946l6.417-.937a8.115,8.115,0,0,0,6.227-4.488L87.726,17.147A3.89,3.89,0,0,0,86.475,12.176Z"/><text x="0" y="110" fill="#000000" font-size="5px" font-weight="bold" font-family="'Helvetica Neue', Helvetica, Arial-Unicode, Arial, Sans-serif">Created by rukanicon</text><text x="0" y="115" fill="#000000" font-size="5px" font-weight="bold" font-family="'Helvetica Neue', Helvetica, Arial-Unicode, Arial, Sans-serif">from the Noun Project</text></svg>