<svg xmlns="http://www.w3.org/2000/svg" version="1.1" viewBox="-5.0 -20.0 110.0 135.0">
 <g>
  <path d="m23.438 3.125c1.7266 0 3.125 1.3984 3.125 3.125v12.5c0 1.7266-1.3984 3.125-3.125 3.125s-3.125-1.3984-3.125-3.125v-3.125h-7.8125c-1.7266 0-3.125 1.3984-3.125 3.125v59.375c0 1.7266 1.3984 3.125 3.125 3.125h40.625v-17.188c0-5.1758 4.1992-9.375 9.375-9.375h15.625v-35.938c0-1.7266-1.3984-3.125-3.125-3.125h-1.5625v-6.25h1.5625c5.1758 0 9.375 4.1992 9.375 9.375v38.215c0 2.4336-0.94922 4.7734-2.6406 6.5234l-20.504 21.16c-1.7656 1.8242-4.1953 2.8516-6.7344 2.8516h-41.996c-5.1758 0-9.375-4.1992-9.375-9.375v-59.375c0-5.1758 4.1992-9.375 9.375-9.375h7.8125v-3.125c0-1.7266 1.3984-3.125 3.125-3.125zm52.062 57.812-16.125 16.645v-13.52c0-1.7266 1.3984-3.125 3.125-3.125z" fill-rule="evenodd"/>
  <path d="m64.062 3.125c1.7266 0 3.125 1.3984 3.125 3.125v12.5c0 1.7266-1.3984 3.125-3.125 3.125s-3.125-1.3984-3.125-3.125v-3.125h-28.125v-6.25h28.125v-3.125c0-1.7266 1.3984-3.125 3.125-3.125z"/>
  <path d="m25 96.875c-1.7266 0-3.125-1.3984-3.125-3.125s1.3984-3.125 3.125-3.125h62.5c1.7266 0 3.125-1.3984 3.125-3.125v-50c0-1.7266 1.3984-3.125 3.125-3.125s3.125 1.3984 3.125 3.125v50c0 5.1758-4.1992 9.375-9.375 9.375z"/>
 </g>
<text x="0.0" y="117.5" font-size="5.0" font-weight="bold" font-family="Arbeit Regular, Helvetica, Arial-Unicode, Arial, Sans-serif" fill="#000000">Created by HideMaru</text><text x="0.0" y="122.5" font-size="5.0" font-weight="bold" font-family="Arbeit Regular, Helvetica, Arial-Unicode, Arial, Sans-serif" fill="#000000">from Noun Project</text></svg>